<svg version="1.1" id="Layer_1" xmlns="http://www.w3.org/2000/svg" x="0" y="0" viewBox="0 0 512 512" style="enable-background:new 0 0 512 512" xml:space="preserve"><circle style="fill:#e1effa" cx="256" cy="256" r="256"/><path style="fill:#bcd4e8" d="M290.583 155.907c-.128-.131-.302-.294-.43-.422-17.239-17.121-40.929-27.676-67.118-27.676-52.595 0-95.224 42.634-95.224 95.219 0 24.627 9.367 47.124 24.748 64.031.044.084.131.131.212.21l6.019 6.021c.092.09.125.166.212.21l197.816 197.852c60.334-25.879 108.71-74.271 134.569-134.613L290.583 155.907z"/><path style="fill:#5d6d7e" d="m281.116 295.834 6.3 6.302 7.365 7.327 2.839 2.86 14.697-14.708-16.478-16.504z"/><path style="fill:#ff8e31" d="m327.304 297.518 50.716 50.714a20.923 20.923 0 0 1 6.167 14.894 21.045 21.045 0 0 1-6.167 14.915 21.006 21.006 0 0 1-14.892 6.144 20.99 20.99 0 0 1-14.894-6.157l-50.714-50.719 29.784-29.791z"/><path style="fill:#fece59" d="m320.305 304.527 4.122-4.129 50.721 50.721a16.851 16.851 0 0 1 4.961 12.004 16.94 16.94 0 0 1-4.961 12.029 2.984 2.984 0 0 1-2.066.842 2.941 2.941 0 0 1-2.074-.85 2.922 2.922 0 0 1 0-4.114 11.108 11.108 0 0 0 3.272-7.915 11.022 11.022 0 0 0-3.256-7.872l-50.719-50.716z"/><path style="fill:#34495e" d="m297.518 327.309 29.786-29.793-2.222-2.227a7.305 7.305 0 0 0-5.212-2.163 7.296 7.296 0 0 0-5.217 2.153l-19.369 19.379a7.308 7.308 0 0 0-2.161 5.212c0 2.022.829 3.884 2.161 5.197l2.234 2.242zM127.811 223.03c0-52.58 42.634-95.219 95.224-95.219 52.595 0 95.227 42.642 95.227 95.219 0 52.595-42.637 95.227-95.227 95.24-52.59-.013-95.224-42.645-95.224-95.24z"/><path style="fill:#5d6d7e" d="M223.035 307.953c46.886 0 84.915-38.016 84.915-84.923 0-46.881-38.029-84.908-84.915-84.908-46.894 0-84.918 38.024-84.918 84.908 0 46.907 38.024 84.923 84.918 84.923z"/><path style="fill:#cee2f2" d="M223.035 301.156c43.136 0 78.118-34.967 78.118-78.126 0-43.126-34.982-78.116-78.118-78.116s-78.121 34.99-78.121 78.116c0 43.156 34.977 78.126 78.121 78.126z"/><path style="fill:#fff" d="M225.091 157.74c-1.331-1.974-3.617-3.21-6.134-3.067-10.783.655-20.974 3.692-30.287 9.098-3.279 1.917-4.403 6.144-2.493 9.439 1.91 3.254 6.141 4.411 9.411 2.476 7.429-4.285 15.56-6.72 24.179-7.245 3.786-.197 6.7-3.464 6.464-7.247a6.525 6.525 0 0 0-1.14-3.454zM180.859 180.388a7.068 7.068 0 0 0-1.37-1.495c-2.957-2.419-7.293-1.948-9.684 1.006-7.037 8.64-11.881 19.005-14.019 30.036-2.529 13.102-1.206 26.516 3.817 38.81a6.897 6.897 0 0 0 9.009 3.758c3.525-1.428 5.204-5.443 3.761-8.986-4.006-9.802-5.046-20.508-3.011-30.966a53.904 53.904 0 0 1 11.146-23.969c1.953-2.398 2.005-5.767.351-8.194z"/></svg>